<mxfile host="app.diagrams.net" modified="2023-07-28T08:44:33.274Z" agent="Mozilla/5.0 (Windows NT 10.0; Win64; x64; rv:109.0) Gecko/20100101 Firefox/115.0" etag="vwvFYFq5vTRVynsyr_5B" version="21.1.4" type="github">
  <diagram name="Página-1" id="Qt1nAESgiJqlnCuuWWPx">
    <mxGraphModel dx="1062" dy="752" grid="1" gridSize="10" guides="1" tooltips="1" connect="1" arrows="1" fold="1" page="1" pageScale="1" pageWidth="413" pageHeight="583" math="0" shadow="0">
      <root>
        <mxCell id="0" />
        <mxCell id="1" parent="0" />
        <mxCell id="VtspZWB62kBOYUSOH2-3-1" value="Cliente" style="shape=umlActor;verticalLabelPosition=bottom;verticalAlign=top;html=1;outlineConnect=0;" vertex="1" parent="1">
          <mxGeometry x="51" y="165" width="15" height="30" as="geometry" />
        </mxCell>
        <mxCell id="VtspZWB62kBOYUSOH2-3-2" value="&lt;div&gt;Administrador&lt;/div&gt;" style="shape=umlActor;verticalLabelPosition=bottom;verticalAlign=top;html=1;outlineConnect=0;" vertex="1" parent="1">
          <mxGeometry x="51" y="395" width="15" height="30" as="geometry" />
        </mxCell>
        <mxCell id="VtspZWB62kBOYUSOH2-3-4" value="Ver las horas disponibles" style="rounded=1;whiteSpace=wrap;html=1;" vertex="1" parent="1">
          <mxGeometry x="262" y="115" width="100" height="50" as="geometry" />
        </mxCell>
        <mxCell id="VtspZWB62kBOYUSOH2-3-5" value="Crear una cita" style="rounded=1;whiteSpace=wrap;html=1;" vertex="1" parent="1">
          <mxGeometry x="261" y="182" width="100" height="50" as="geometry" />
        </mxCell>
        <mxCell id="VtspZWB62kBOYUSOH2-3-6" value="Modificar cita" style="rounded=1;whiteSpace=wrap;html=1;" vertex="1" parent="1">
          <mxGeometry x="261" y="248" width="100" height="50" as="geometry" />
        </mxCell>
        <mxCell id="VtspZWB62kBOYUSOH2-3-9" value="" style="endArrow=classic;html=1;rounded=0;exitX=1;exitY=0.3333333333333333;exitDx=0;exitDy=0;exitPerimeter=0;entryX=0;entryY=0.5;entryDx=0;entryDy=0;" edge="1" parent="1" source="VtspZWB62kBOYUSOH2-3-1" target="VtspZWB62kBOYUSOH2-3-4">
          <mxGeometry width="50" height="50" relative="1" as="geometry">
            <mxPoint x="81" y="185" as="sourcePoint" />
            <mxPoint x="131" y="135" as="targetPoint" />
          </mxGeometry>
        </mxCell>
        <mxCell id="VtspZWB62kBOYUSOH2-3-10" value="" style="endArrow=classic;html=1;rounded=0;exitX=1;exitY=0.3333333333333333;exitDx=0;exitDy=0;exitPerimeter=0;entryX=0;entryY=0.5;entryDx=0;entryDy=0;" edge="1" parent="1" source="VtspZWB62kBOYUSOH2-3-1" target="VtspZWB62kBOYUSOH2-3-5">
          <mxGeometry width="50" height="50" relative="1" as="geometry">
            <mxPoint x="76" y="185" as="sourcePoint" />
            <mxPoint x="179" y="137" as="targetPoint" />
          </mxGeometry>
        </mxCell>
        <mxCell id="VtspZWB62kBOYUSOH2-3-11" value="" style="endArrow=classic;html=1;rounded=0;entryX=0;entryY=0.5;entryDx=0;entryDy=0;exitX=1;exitY=0.3333333333333333;exitDx=0;exitDy=0;exitPerimeter=0;" edge="1" parent="1" source="VtspZWB62kBOYUSOH2-3-1" target="VtspZWB62kBOYUSOH2-3-6">
          <mxGeometry width="50" height="50" relative="1" as="geometry">
            <mxPoint x="121" y="305" as="sourcePoint" />
            <mxPoint x="178" y="204" as="targetPoint" />
          </mxGeometry>
        </mxCell>
        <mxCell id="VtspZWB62kBOYUSOH2-3-12" value="" style="endArrow=classic;html=1;rounded=0;exitX=1;exitY=0.3333333333333333;exitDx=0;exitDy=0;exitPerimeter=0;entryX=0;entryY=0.5;entryDx=0;entryDy=0;" edge="1" parent="1" source="VtspZWB62kBOYUSOH2-3-2" target="VtspZWB62kBOYUSOH2-3-5">
          <mxGeometry width="50" height="50" relative="1" as="geometry">
            <mxPoint x="86" y="195" as="sourcePoint" />
            <mxPoint x="188" y="214" as="targetPoint" />
          </mxGeometry>
        </mxCell>
        <mxCell id="VtspZWB62kBOYUSOH2-3-13" value="" style="endArrow=classic;html=1;rounded=0;exitX=1;exitY=0.3333333333333333;exitDx=0;exitDy=0;exitPerimeter=0;entryX=0;entryY=0.5;entryDx=0;entryDy=0;" edge="1" parent="1" source="VtspZWB62kBOYUSOH2-3-2" target="VtspZWB62kBOYUSOH2-3-6">
          <mxGeometry width="50" height="50" relative="1" as="geometry">
            <mxPoint x="76" y="415" as="sourcePoint" />
            <mxPoint x="178" y="204" as="targetPoint" />
          </mxGeometry>
        </mxCell>
        <mxCell id="VtspZWB62kBOYUSOH2-3-14" value="" style="endArrow=classic;html=1;rounded=0;entryX=0;entryY=0.5;entryDx=0;entryDy=0;exitX=1;exitY=0.3333333333333333;exitDx=0;exitDy=0;exitPerimeter=0;" edge="1" parent="1" source="VtspZWB62kBOYUSOH2-3-2" target="VtspZWB62kBOYUSOH2-3-4">
          <mxGeometry width="50" height="50" relative="1" as="geometry">
            <mxPoint x="281" y="425" as="sourcePoint" />
            <mxPoint x="188" y="214" as="targetPoint" />
          </mxGeometry>
        </mxCell>
        <mxCell id="VtspZWB62kBOYUSOH2-3-15" value="Cancelar cita" style="rounded=1;whiteSpace=wrap;html=1;" vertex="1" parent="1">
          <mxGeometry x="261" y="358" width="100" height="50" as="geometry" />
        </mxCell>
        <mxCell id="VtspZWB62kBOYUSOH2-3-16" value="" style="endArrow=classic;html=1;rounded=0;exitX=1;exitY=0.3333333333333333;exitDx=0;exitDy=0;exitPerimeter=0;entryX=0;entryY=0.5;entryDx=0;entryDy=0;" edge="1" parent="1" source="VtspZWB62kBOYUSOH2-3-2" target="VtspZWB62kBOYUSOH2-3-15">
          <mxGeometry width="50" height="50" relative="1" as="geometry">
            <mxPoint x="76" y="415" as="sourcePoint" />
            <mxPoint x="178" y="270" as="targetPoint" />
          </mxGeometry>
        </mxCell>
        <mxCell id="VtspZWB62kBOYUSOH2-3-17" value="Ver todas las citas" style="rounded=1;whiteSpace=wrap;html=1;" vertex="1" parent="1">
          <mxGeometry x="261" y="418" width="100" height="50" as="geometry" />
        </mxCell>
        <mxCell id="VtspZWB62kBOYUSOH2-3-18" value="" style="endArrow=classic;html=1;rounded=0;exitX=1;exitY=0.3333333333333333;exitDx=0;exitDy=0;exitPerimeter=0;entryX=0;entryY=0.5;entryDx=0;entryDy=0;" edge="1" parent="1" source="VtspZWB62kBOYUSOH2-3-2" target="VtspZWB62kBOYUSOH2-3-17">
          <mxGeometry width="50" height="50" relative="1" as="geometry">
            <mxPoint x="76" y="415" as="sourcePoint" />
            <mxPoint x="178" y="380" as="targetPoint" />
          </mxGeometry>
        </mxCell>
        <mxCell id="VtspZWB62kBOYUSOH2-3-20" value="&lt;h1&gt;Aplicación mínima&lt;br&gt;&lt;/h1&gt;" style="text;html=1;strokeColor=none;fillColor=none;spacing=5;spacingTop=-20;whiteSpace=wrap;overflow=hidden;rounded=0;" vertex="1" parent="1">
          <mxGeometry x="17" y="10" width="293" height="40" as="geometry" />
        </mxCell>
      </root>
    </mxGraphModel>
  </diagram>
</mxfile>
